<svg width="49" height="57" viewBox="0 0 49 57" fill="none" xmlns="http://www.w3.org/2000/svg">
<path d="M29.866 0H19.0088C17.516 0 16.2945 1.22143 16.2945 2.71429C16.2945 4.20714 17.516 5.42857 19.0088 5.42857H29.866C31.3588 5.42857 32.5803 4.20714 32.5803 2.71429C32.5803 1.22143 31.3588 0 29.866 0ZM24.4374 35.2857C25.9303 35.2857 27.1517 34.0643 27.1517 32.5714V21.7143C27.1517 20.2214 25.9303 19 24.4374 19C22.9445 19 21.7231 20.2214 21.7231 21.7143V32.5714C21.7231 34.0643 22.9445 35.2857 24.4374 35.2857ZM43.5188 17.3443L45.5546 15.3086C46.0564 14.8036 46.3381 14.1205 46.3381 13.4086C46.3381 12.6966 46.0564 12.0136 45.5546 11.5086L45.5274 11.4814C45.0224 10.9795 44.3394 10.6978 43.6274 10.6978C42.9154 10.6978 42.2324 10.9795 41.7274 11.4814L39.6917 13.5171C35.3687 10.0383 29.9863 8.14202 24.4374 8.14286C11.4088 8.14286 0.33455 18.8914 0.00883533 31.92C-0.0789441 35.1826 0.488096 38.4297 1.67645 41.4694C2.86481 44.5092 4.65038 47.2799 6.92765 49.6179C9.20493 51.9559 11.9277 53.8138 14.9351 55.0817C17.9426 56.3496 21.1736 57.0019 24.4374 57C29.0362 57.0025 33.5423 55.7059 37.4365 53.2596C41.3307 50.8133 44.4547 47.3168 46.4487 43.1727C48.4428 39.0287 49.2257 34.4056 48.7073 29.8361C48.189 25.2666 46.3904 20.9364 43.5188 17.3443ZM24.4374 51.5714C13.9331 51.5714 5.43741 43.0757 5.43741 32.5714C5.43741 22.0671 13.9331 13.5714 24.4374 13.5714C34.9417 13.5714 43.4374 22.0671 43.4374 32.5714C43.4374 43.0757 34.9417 51.5714 24.4374 51.5714Z" fill="black"/>
</svg>
